<svg xmlns="http://www.w3.org/2000/svg" viewBox="0 0 512 512">
  <defs>
    <linearGradient id="taskflow-gradient" x1="0%" y1="0%" x2="100%" y2="100%">
      <stop offset="0%" style="stop-color:#3b82f6;stop-opacity:1" />
      <stop offset="100%" style="stop-color:#8284FA;stop-opacity:1" />
    </linearGradient>
  </defs>
  <rect width="512" height="512" rx="80" fill="white"/>
  <rect x="32" y="32" width="448" height="448" rx="48" fill="none" stroke="url(#taskflow-gradient)" stroke-width="32"/>
  <path d="M395.5 187.7c-4.7-4.7-12.3-4.7-17 0L237.3 329l-71.8-71.8c-4.7-4.7-12.3-4.7-17 0-4.7 4.7-4.7 12.3 0 17l80.3 80.3c4.7 4.7 12.3 4.7 17 0l149.7-149.7c4.7-4.7 4.7-12.3 0-17z" fill="url(#taskflow-gradient)"/>
  <path d="M256 80c-97.2 0-176 78.8-176 176s78.8 176 176 176 176-78.8 176-176H384c0 70.7-57.3 128-128 128s-128-57.3-128-128 57.3-128 128-128v48l96-72-96-72v48z" fill="url(#taskflow-gradient)"/>
</svg>